<?xml version="1.0" encoding="UTF-8" standalone="no"?>
<svg
   xmlns:dc="http://purl.org/dc/elements/1.1/"
   xmlns:cc="http://creativecommons.org/ns#"
   xmlns:rdf="http://www.w3.org/1999/02/22-rdf-syntax-ns#"
   xmlns:svg="http://www.w3.org/2000/svg"
   xmlns="http://www.w3.org/2000/svg"
   xmlns:sodipodi="http://sodipodi.sourceforge.net/DTD/sodipodi-0.dtd"
   xmlns:inkscape="http://www.inkscape.org/namespaces/inkscape"
   viewBox="0 0 123.27198 24.845345"
   version="1.1"
   id="svg2"
   inkscape:version="0.91 r13725"
   sodipodi:docname="huayra.svg"
   width="123.27198"
   height="24.845345">
  <metadata
     id="metadata18">
    <rdf:RDF>
      <cc:Work
         rdf:about="">
        <dc:format>image/svg+xml</dc:format>
        <dc:type
           rdf:resource="http://purl.org/dc/dcmitype/StillImage" />
        <dc:title>light-logo</dc:title>
      </cc:Work>
    </rdf:RDF>
  </metadata>
  <sodipodi:namedview
     pagecolor="#ffffff"
     bordercolor="#666666"
     borderopacity="1"
     objecttolerance="10"
     gridtolerance="10"
     guidetolerance="10"
     inkscape:pageopacity="0"
     inkscape:pageshadow="2"
     inkscape:window-width="1440"
     inkscape:window-height="824"
     id="namedview16"
     showgrid="false"
     inkscape:zoom="2.3489583"
     inkscape:cx="93.777902"
     inkscape:cy="13.725333"
     inkscape:window-x="0"
     inkscape:window-y="27"
     inkscape:window-maximized="1"
     inkscape:current-layer="svg2"
     fit-margin-top="0"
     fit-margin-left="0"
     fit-margin-right="0"
     fit-margin-bottom="0" />
  <!-- Generator: Sketch 3.6.1 (26313) - http://www.bohemiancoding.com/sketch -->
  <title
     id="title4">light-logo</title>
  <desc
     id="desc6">Created with Sketch.</desc>
  <defs
     id="defs8" />
  <path
     style="display:inline;fill:#00aad4;fill-opacity:1;stroke:none"
     d="M 9.1381974,0.2716548 0,17.142612 0.02667,21.293081 c 0,0 3.074644,0.06513 5.49616,-0.05589 1.755035,-1.987145 2.5903504,-4.093787 6.642558,-3.838648 4.052208,0.255134 3.407908,3.769904 3.407908,3.769904 l 5.613892,-0.119969 c 1.82685,-1.888837 2.38624,-2.738683 3.66931,-4.048756 0.88321,3.555187 10.32717,6.050713 13.12474,2.025069 2.79759,-4.025644 5.75031,-10.6529738 5.75031,-10.6529738 l -2.44929,-3.5806344 -5.65671,7.7327642 -5.56339,-2.6417358 -2.72921,-5.3709484 -3.8664,4.0588304 -1.03801,-1.516229 -6.408999,-1.6970094 -5.091024,4.3387444 z"
     id="path14899"
     inkscape:connector-curvature="0"
     sodipodi:nodetypes="cccczccczcccccccccc" />
  <polygon
     style="display:inline;fill:#ffffff;fill-rule:nonzero"
     id="polygon3986"
     points="5862,5211 5936,5238 6010,5272 6077,5319 6145,5366 6212,5420 6320,5548 6367,5622 6408,5703 6441,5784 6468,5878 6488,5980 6502,6081 6434,6081 6367,6081 6212,6081 6199,5946 6165,5825 6111,5710 6044,5616 5949,5535 5841,5481 5720,5440 5646,5434 5572,5427 5498,5434 5430,5447 5370,5467 5309,5501 5201,5575 5120,5663 5053,5771 5006,5878 4979,5980 4972,6081 4864,6074 4824,6074 4784,6074 4757,6074 4736,6074 4723,6074 4716,6074 4716,4726 4716,4726 4972,4726 4972,4733 4972,4746 4972,4773 4972,4807 4972,4847 4972,4895 4972,5002 4972,5110 4972,5225 4972,5326 4972,5366 4972,5400 5013,5373 5060,5339 5114,5299 5181,5258 5262,5225 5363,5198 5484,5184 5633,5178 5707,5184 5788,5198 "
     class="fil2"
     transform="matrix(0.0096958,0,0,0.0096958,-36.529631,-45.822351)" />
  <polygon
     style="display:inline;fill:#ffffff;fill-rule:nonzero"
     id="polygon3988"
     points="7930,5589 7964,5521 7984,5461 7998,5407 8011,5346 8011,5299 8018,5258 8018,5225 8018,5205 8018,5191 8341,5198 8341,5205 8341,5232 8341,5279 8341,5333 8328,5400 8315,5474 8288,5555 8254,5636 8213,5723 8153,5804 8085,5878 7998,5946 7897,6000 7769,6040 7627,6074 7465,6081 7297,6074 7156,6040 7034,6000 6926,5939 6839,5872 6771,5798 6711,5717 6670,5636 6630,5555 6610,5474 6589,5400 6583,5333 6576,5272 6576,5232 6576,5198 6576,5191 6576,5191 6899,5198 6899,5205 6893,5225 6893,5252 6899,5292 6899,5346 6913,5393 6926,5454 6947,5515 6974,5575 7007,5629 7054,5683 7108,5730 7176,5777 7250,5811 7344,5831 7452,5845 7553,5838 7647,5818 7728,5791 7796,5750 7850,5697 7897,5643 "
     class="fil2"
     transform="matrix(0.0096958,0,0,0.0096958,-36.529631,-45.822351)" />
  <path
     style="display:inline;fill:#00aad4;fill-opacity:1;stroke:none"
     d="m 103.86337,6.8666342 -0.47125,-1.2252994 -11.498946,0.659777 -4.43941,3.0930484 c -2.95014,5.0097068 -4.42258,7.5983668 -4.48416,7.9518338 -0.77168,-3.131852 -2.00988,-9.7253308 -2.00988,-9.7253308 l -4.2414,3.4873838 -8.67134,-1.5080588 -2.54485,-5.2782064 -3.374996,6.6549302 -6.14464,-5.2411232 c 0,0 -6.88052,1.5080614 -6.88052,1.8850744 0,0.37701 -2.02785,-0.135256 -2.02785,-0.135256 l 0,5e-6 c 0,0 -3.12199,4.8848058 -4.29939,7.1487308 -1.17738,2.263925 -0.91784,6.462775 -0.91784,6.462775 l 3.68083,-0.002 c 0,0 3.91877,-2.584015 7.22837,-2.469995 3.3096,0.114025 2.96295,2.328614 2.96295,2.328614 l 4.56248,0.06261 3.37332,-2.033757 c 0,0 0.32354,1.683028 4.106396,1.831793 3.78286,0.148764 5.61471,-1.586581 6.02337,-1.205209 -0.36896,1.570422 -1.11717,5.236371 -1.11717,5.236371 l 5.57267,-0.03432 c 0,0 2.34084,-3.724083 3.89601,-5.669074 4.02113,-0.01224 8.56132,-0.270631 8.56132,-0.270631 2.6034,-5.297068 5.42327,-5.510186 9.010548,-5.416529"
     id="path14926"
     inkscape:connector-curvature="0"
     sodipodi:nodetypes="cccccccccccscczcczccczcccccc" />
  <polygon
     style="display:inline;fill:#ffffff;fill-rule:nonzero"
     id="polygon3990"
     points="9049,5622 9009,5683 8982,5744 8961,5804 8948,5865 8934,5919 8928,5973 8928,6013 8928,6047 8928,6067 8928,6074 8598,6074 8598,6060 8598,6033 8598,5986 8604,5932 8618,5865 8631,5791 8651,5710 8685,5629 8732,5548 8786,5467 8860,5393 8948,5326 9049,5265 9170,5225 9312,5198 9480,5184 9642,5198 9784,5225 9912,5272 10013,5326 10100,5393 10174,5467 10228,5548 10275,5629 10309,5717 10336,5798 10350,5872 10363,5939 10370,5993 10370,6040 10370,6067 10370,6074 10370,6074 10046,6074 10046,6067 10046,6047 10046,6013 10046,5973 10040,5926 10033,5872 10019,5811 9999,5757 9972,5697 9932,5636 9891,5582 9837,5535 9770,5494 9689,5461 9602,5434 9494,5427 9386,5434 9292,5447 9218,5481 9150,5521 9089,5568 "
     class="fil2"
     transform="matrix(0.0096958,0,0,0.0096958,-37.662629,-45.822351)" />
  <path
     style="display:inline;fill:#00aad4;fill-opacity:1;stroke:none"
     d="m 107.40983,7.7636572 c 0,0 -5.56449,5.9150618 -6.39818,8.3309258 -0.83365,2.415864 -0.63313,4.532027 -0.63313,4.532027 l 5.36512,0 c 0,0 3.93259,-3.260634 6.59808,-3.46567 1.73285,-0.133294 3.57514,0.592491 3.93222,1.66619 0.38781,1.166118 0.0667,1.79948 0.0667,1.79948 l 3.59896,0.06665 3.33238,-7.731101 c 0,0 -1.86612,-5.1318508 -3.19909,-5.6650288 -1.33293,-0.533177 -5.73167,-1.7328324 -5.99825,-1.7328324 -0.26659,0 -6.66475,2.1993634 -6.66475,2.1993634 z"
     id="path20941"
     inkscape:connector-curvature="0"
     sodipodi:nodetypes="czccsscccssc" />
  <polygon
     style="display:inline;fill:#ffffff;fill-rule:nonzero"
     id="polygon3992"
     points="15269,5616 15228,5676 15201,5737 15181,5798 15161,5858 15154,5912 15147,5966 15147,6006 15147,6040 15147,6060 15147,6067 14817,6067 14817,6054 14817,6027 14817,5986 14824,5926 14831,5858 14851,5784 14871,5703 14905,5622 14952,5542 15006,5461 15080,5387 15168,5319 15269,5265 15390,5218 15532,5191 15700,5184 15862,5191 16003,5218 16131,5265 16232,5319 16320,5387 16394,5461 16448,5542 16495,5629 16529,5710 16556,5791 16569,5865 16583,5932 16590,5986 16590,6033 16590,6060 16590,6074 16590,6074 16266,6067 16266,6060 16266,6040 16266,6006 16266,5966 16259,5919 16253,5865 16239,5811 16219,5750 16192,5690 16152,5629 16111,5575 16057,5528 15990,5488 15909,5454 15821,5427 15714,5420 15606,5427 15511,5440 15437,5474 15370,5515 15309,5562 "
     class="fil2"
     transform="matrix(0.0096958,0,0,0.0096958,-37.662629,-45.822351)" />
  <polygon
     style="display:inline;fill:#ffffff;fill-rule:nonzero"
     id="polygon3994"
     points="11374,6054 11300,6033 11226,6006 11151,5973 11077,5932 11017,5885 10949,5831 10842,5703 10794,5629 10754,5548 10720,5461 10693,5373 10673,5272 10660,5171 10727,5171 10794,5171 10949,5171 10963,5299 10996,5427 11050,5535 11118,5629 11212,5710 11320,5771 11441,5804 11515,5818 11589,5818 11664,5818 11731,5798 11792,5777 11852,5750 11960,5676 12041,5582 12108,5481 12156,5373 12182,5265 12189,5171 12297,5171 12337,5171 12378,5171 12405,5171 12425,5171 12439,5171 12445,5171 12445,6519 12445,6519 12189,6519 12189,6519 12189,6498 12189,6471 12189,6438 12189,6397 12189,6357 12189,6249 12189,6135 12189,6027 12189,5926 12189,5885 12189,5845 12149,5878 12102,5912 12048,5953 11980,5986 11899,6020 11798,6047 11677,6067 11529,6074 11455,6067 "
     class="fil2"
     transform="matrix(0.0096958,0,0,0.0096958,-37.662629,-45.822351)" />
  <polygon
     style="display:inline;fill:#ffffff;fill-rule:nonzero"
     id="polygon3996"
     points="14373,5184 14433,5184 14487,5184 14521,5184 14554,5184 14575,5184 14588,5184 14608,5184 14608,5184 14608,5184 14608,5420 14602,5420 14588,5420 14568,5420 14541,5420 14507,5420 14467,5420 14413,5420 14359,5420 14231,5420 14076,5420 13901,5420 13705,5420 13611,5427 13523,5447 13449,5481 13389,5521 13335,5568 13288,5629 13247,5683 13220,5750 13173,5872 13160,5926 13153,5973 13146,6020 13139,6054 13139,6074 13139,6081 12816,6074 12816,6067 12816,6040 12816,5993 12829,5939 12836,5872 12856,5791 12883,5710 12924,5629 12964,5548 13025,5467 13099,5393 13180,5319 13281,5265 13402,5218 13537,5191 13692,5184 13847,5184 13988,5184 14110,5184 14211,5184 14298,5184 "
     class="fil2"
     transform="matrix(0.0096958,0,0,0.0096958,-37.662629,-45.822351)" />
  <polygon
     style="display:inline;fill:#b3ff80;fill-rule:nonzero"
     id="polygon4006"
     points="15639,5703 15680,5697 15714,5690 15754,5697 15788,5703 15848,5744 15889,5804 15895,5838 15902,5878 15902,5878 15895,5919 15889,5953 15848,6013 15788,6054 15754,6060 15714,6067 15680,6060 15639,6054 15585,6013 15545,5953 15532,5919 15532,5878 15532,5838 15545,5804 15585,5744 "
     class="fil5"
     transform="matrix(0.0096958,0,0,0.0096958,-37.662629,-45.822351)" />
  <polygon
     style="display:inline;fill:#b3ff80;fill-rule:nonzero"
     id="polygon4008"
     points="9420,5717 9453,5710 9494,5703 9527,5710 9561,5717 9622,5757 9662,5818 9676,5851 9676,5892 9676,5892 9676,5932 9662,5966 9622,6027 9561,6067 9527,6074 9494,6081 9453,6074 9420,6067 9359,6027 9319,5966 9312,5932 9305,5892 9312,5851 9319,5818 9359,5757 "
     class="fil5"
     transform="matrix(0.0096958,0,0,0.0096958,-37.662629,-45.822351)" />
</svg>
